<svg width="155" height="71" viewBox="0 0 155 71" fill="none" xmlns="http://www.w3.org/2000/svg">
<g clip-path="url(#clip0_1_5645)">
<path d="M24 57.5C36.1506 57.5 46 47.6506 46 35.5C46 23.3494 36.1506 13.5 24 13.5C11.8494 13.5 2 23.3494 2 35.5C2 47.6506 11.8494 57.5 24 57.5Z" fill="#CEE0FA" stroke="#CEE0FA" stroke-width="4" stroke-linecap="round" stroke-linejoin="round"/>
<path d="M23.722 21.5L14.446 34.994C13.886 35.806 13.606 36.212 13.626 36.55C13.6329 36.6952 13.6713 36.8372 13.7387 36.966C13.806 37.0949 13.9007 37.2075 14.016 37.296C14.286 37.5 14.776 37.5 15.764 37.5H23.722V47.5L32.998 34.006C33.558 33.194 33.838 32.788 33.818 32.45C33.8111 32.3048 33.7727 32.1628 33.7053 32.034C33.638 31.9051 33.5433 31.7925 33.428 31.704C33.158 31.5 32.668 31.5 31.68 31.5H23.722V21.5Z" fill="#0B63E5" stroke="#0B63E5" stroke-width="2" stroke-linecap="round" stroke-linejoin="round"/>
</g>
<path d="M66.46 49.5L58.612 24.3H63.508L67.972 39.168C68.116 39.624 68.248 40.128 68.368 40.68C68.488 41.232 68.596 41.784 68.692 42.336C68.788 42.864 68.872 43.356 68.944 43.812C69.016 44.268 69.088 44.652 69.16 44.964L68.188 44.928C68.476 43.8 68.704 42.888 68.872 42.192C69.04 41.496 69.184 40.92 69.304 40.464C69.448 39.984 69.592 39.54 69.736 39.132L73.984 28.26H77.98L82.12 39.132C82.36 39.804 82.576 40.452 82.768 41.076C82.96 41.676 83.116 42.276 83.236 42.876C83.38 43.452 83.512 44.052 83.632 44.676L82.768 44.856C82.864 44.28 82.936 43.812 82.984 43.452C83.032 43.092 83.08 42.768 83.128 42.48C83.176 42.192 83.224 41.916 83.272 41.652C83.32 41.364 83.392 41.028 83.488 40.644C83.608 40.236 83.752 39.72 83.92 39.096L88.348 24.3H93.208L85.324 49.5H81.94L75.532 34.164L75.964 34.308L69.88 49.5H66.46ZM95.9122 49.5V45.36H100.052V28.44H95.9122V24.3H108.872V28.44H104.732V45.36H108.872V49.5H95.9122ZM118.012 41.976L117.292 37.332L130.252 24.3H136.12L118.012 41.976ZM114.304 49.5V24.3H118.984V49.5H114.304ZM130.828 49.5L121.288 36.792L124.6 33.948L136.516 49.5H130.828ZM139.445 49.5V45.36H143.585V28.44H139.445V24.3H152.405V28.44H148.265V45.36H152.405V49.5H139.445Z" fill="#061C3D"/>
<defs>
<clipPath id="clip0_1_5645">
<rect width="48" height="48" fill="white" transform="translate(0 11.5)"/>
</clipPath>
</defs>
</svg>
