<svg width="315" height="71" viewBox="0 0 315 71" fill="none" xmlns="http://www.w3.org/2000/svg">
<g clip-path="url(#clip0_232_12143)">
<path d="M24 57.5C36.1506 57.5 46 47.6506 46 35.5C46 23.3494 36.1506 13.5 24 13.5C11.8494 13.5 2 23.3494 2 35.5C2 47.6506 11.8494 57.5 24 57.5Z" fill="#CEE0FA" stroke="#CEE0FA" stroke-width="4" stroke-linecap="round" stroke-linejoin="round"/>
<path d="M23.722 21.5L14.446 34.994C13.886 35.806 13.606 36.212 13.626 36.55C13.6329 36.6952 13.6713 36.8372 13.7387 36.966C13.806 37.0949 13.9007 37.2075 14.016 37.296C14.286 37.5 14.776 37.5 15.764 37.5H23.722V47.5L32.998 34.006C33.558 33.194 33.838 32.788 33.818 32.45C33.8111 32.3048 33.7727 32.1628 33.7053 32.034C33.638 31.9051 33.5433 31.7925 33.428 31.704C33.158 31.5 32.668 31.5 31.68 31.5H23.722V21.5Z" fill="#0B63E5" stroke="#0B63E5" stroke-width="2" stroke-linecap="round" stroke-linejoin="round"/>
</g>
<path d="M66.169 48.5L58.6776 22.3182H64.7244L69.0582 40.5099H69.2756L74.0568 22.3182H79.2344L84.0028 40.5483H84.233L88.5668 22.3182H94.6136L87.1222 48.5H81.7273L76.7415 31.3821H76.5369L71.5639 48.5H66.169ZM103.112 22.3182V48.5H97.5763V22.3182H103.112ZM107.666 48.5V22.3182H113.202V33.8622H113.547L122.969 22.3182H129.604L119.888 34.0412L129.719 48.5H123.097L115.925 37.7358L113.202 41.0597V48.5H107.666ZM138.022 22.3182V48.5H132.487V22.3182H138.022ZM174.968 35.4091C174.968 38.2642 174.427 40.6932 173.344 42.696C172.271 44.6989 170.805 46.2287 168.947 47.2855C167.097 48.3338 165.018 48.858 162.708 48.858C160.381 48.858 158.293 48.3295 156.444 47.2727C154.594 46.2159 153.133 44.6861 152.059 42.6832C150.985 40.6804 150.448 38.2557 150.448 35.4091C150.448 32.554 150.985 30.125 152.059 28.1222C153.133 26.1193 154.594 24.5937 156.444 23.5455C158.293 22.4886 160.381 21.9602 162.708 21.9602C165.018 21.9602 167.097 22.4886 168.947 23.5455C170.805 24.5937 172.271 26.1193 173.344 28.1222C174.427 30.125 174.968 32.554 174.968 35.4091ZM169.356 35.4091C169.356 33.5597 169.079 32 168.525 30.7301C167.979 29.4602 167.208 28.4972 166.211 27.8409C165.214 27.1847 164.046 26.8565 162.708 26.8565C161.37 26.8565 160.202 27.1847 159.205 27.8409C158.208 28.4972 157.433 29.4602 156.879 30.7301C156.333 32 156.06 33.5597 156.06 35.4091C156.06 37.2585 156.333 38.8182 156.879 40.0881C157.433 41.358 158.208 42.321 159.205 42.9773C160.202 43.6335 161.37 43.9616 162.708 43.9616C164.046 43.9616 165.214 43.6335 166.211 42.9773C167.208 42.321 167.979 41.358 168.525 40.0881C169.079 38.8182 169.356 37.2585 169.356 35.4091ZM178.966 55.8636V28.8636H184.336V32.1619H184.578C184.817 31.6335 185.162 31.0966 185.614 30.5511C186.074 29.9972 186.671 29.5369 187.404 29.1705C188.145 28.7955 189.066 28.608 190.165 28.608C191.597 28.608 192.918 28.983 194.128 29.733C195.338 30.4744 196.306 31.5952 197.03 33.0952C197.755 34.5866 198.117 36.4574 198.117 38.7074C198.117 40.8977 197.763 42.7472 197.056 44.2557C196.357 45.7557 195.402 46.8935 194.192 47.669C192.99 48.4361 191.644 48.8196 190.152 48.8196C189.096 48.8196 188.196 48.6449 187.455 48.2955C186.722 47.946 186.121 47.5071 185.652 46.9787C185.184 46.4418 184.826 45.9006 184.578 45.3551H184.412V55.8636H178.966ZM184.297 38.6818C184.297 39.8494 184.459 40.8679 184.783 41.7372C185.107 42.6065 185.576 43.2841 186.189 43.7699C186.803 44.2472 187.549 44.4858 188.426 44.4858C189.313 44.4858 190.063 44.2429 190.676 43.7571C191.29 43.2628 191.755 42.581 192.07 41.7116C192.394 40.8338 192.556 39.8239 192.556 38.6818C192.556 37.5483 192.398 36.5511 192.083 35.6903C191.767 34.8295 191.303 34.1562 190.689 33.6705C190.076 33.1847 189.321 32.9418 188.426 32.9418C187.54 32.9418 186.79 33.1761 186.176 33.6449C185.571 34.1136 185.107 34.7784 184.783 35.6392C184.459 36.5 184.297 37.5142 184.297 38.6818ZM210.696 48.8835C208.676 48.8835 206.938 48.4744 205.48 47.6562C204.032 46.8295 202.915 45.6619 202.131 44.1534C201.347 42.6364 200.955 40.8423 200.955 38.7713C200.955 36.7514 201.347 34.9787 202.131 33.4531C202.915 31.9276 204.019 30.7386 205.442 29.8864C206.874 29.0341 208.553 28.608 210.479 28.608C211.775 28.608 212.98 28.8168 214.097 29.2344C215.222 29.6435 216.202 30.2614 217.037 31.0881C217.881 31.9148 218.537 32.9545 219.006 34.2074C219.475 35.4517 219.709 36.9091 219.709 38.5795V40.0753H203.128V36.7003H214.583C214.583 35.9162 214.412 35.2216 214.071 34.6165C213.73 34.0114 213.257 33.5384 212.652 33.1974C212.056 32.848 211.361 32.6733 210.569 32.6733C209.742 32.6733 209.009 32.8651 208.37 33.2486C207.739 33.6236 207.245 34.1307 206.887 34.7699C206.529 35.4006 206.346 36.1037 206.337 36.8793V40.0881C206.337 41.0597 206.516 41.8991 206.874 42.6065C207.24 43.3139 207.756 43.8594 208.421 44.2429C209.086 44.6264 209.874 44.8182 210.786 44.8182C211.391 44.8182 211.945 44.733 212.448 44.5625C212.951 44.392 213.381 44.1364 213.739 43.7955C214.097 43.4545 214.37 43.0369 214.557 42.5426L219.594 42.875C219.338 44.0852 218.814 45.142 218.022 46.0455C217.238 46.9403 216.223 47.6392 214.979 48.142C213.743 48.6364 212.316 48.8835 210.696 48.8835ZM228.709 37.1477V48.5H223.263V28.8636H228.453V32.3281H228.684C229.118 31.1861 229.847 30.2827 230.87 29.6179C231.892 28.9446 233.132 28.608 234.59 28.608C235.953 28.608 237.142 28.9062 238.157 29.5028C239.171 30.0994 239.959 30.9517 240.522 32.0597C241.084 33.1591 241.365 34.4716 241.365 35.9972V48.5H235.919V36.9688C235.928 35.767 235.621 34.8295 234.999 34.1562C234.377 33.4744 233.52 33.1335 232.429 33.1335C231.696 33.1335 231.049 33.2912 230.486 33.6065C229.932 33.9219 229.498 34.3821 229.182 34.9872C228.875 35.5838 228.718 36.304 228.709 37.1477ZM254.092 48.5V22.3182H259.627V33.8622H259.973L269.395 22.3182H276.029L266.314 34.0412L276.145 48.5H269.522L262.35 37.7358L259.627 41.0597V48.5H254.092ZM284.103 22.3182L289.382 31.2415H289.587L294.892 22.3182H301.144L293.154 35.4091L301.323 48.5H294.956L289.587 39.5639H289.382L284.013 48.5H277.672L285.867 35.4091L277.826 22.3182H284.103ZM311.051 22.3182L310.553 40.6506H305.874L305.363 22.3182H311.051ZM308.213 48.8324C307.37 48.8324 306.645 48.5341 306.04 47.9375C305.435 47.3324 305.137 46.608 305.145 45.7642C305.137 44.929 305.435 44.2131 306.04 43.6165C306.645 43.0199 307.37 42.7216 308.213 42.7216C309.023 42.7216 309.735 43.0199 310.348 43.6165C310.962 44.2131 311.273 44.929 311.282 45.7642C311.273 46.3267 311.124 46.8423 310.834 47.3111C310.553 47.7713 310.182 48.142 309.722 48.4233C309.262 48.696 308.759 48.8324 308.213 48.8324Z" fill="#101828"/>
<defs>
<clipPath id="clip0_232_12143">
<rect width="48" height="48" fill="white" transform="translate(0 11.5)"/>
</clipPath>
</defs>
</svg>
