 <svg
          xmlns="http://www.w3.org/2000/svg"
          width="20"
          height="20"
          viewBox="0 0 20 20"
          fill="none"
        >
          <path
            d="M11.25 1.6665C11.25 2.03671 11.0891 2.36933 10.8333 2.59821V4.1665H15C16.3807 4.1665 17.5 5.2858 17.5 6.6665V14.9998C17.5 16.3806 16.3807 17.4998 15 17.4998H5C3.61929 17.4998 2.5 16.3806 2.5 14.9998V6.6665C2.5 5.2858 3.61929 4.1665 5 4.1665H9.16667V2.59821C8.91092 2.36933 8.75 2.03671 8.75 1.6665C8.75 0.976146 9.30967 0.416504 10 0.416504C10.6903 0.416504 11.25 0.976146 11.25 1.6665ZM0 8.33317H1.66667V13.3332H0V8.33317ZM20 8.33317H18.3333V13.3332H20V8.33317ZM7.5 12.0832C8.19036 12.0832 8.75 11.5235 8.75 10.8332C8.75 10.1428 8.19036 9.58317 7.5 9.58317C6.80964 9.58317 6.25 10.1428 6.25 10.8332C6.25 11.5235 6.80964 12.0832 7.5 12.0832ZM13.75 10.8332C13.75 10.1428 13.1903 9.58317 12.5 9.58317C11.8097 9.58317 11.25 10.1428 11.25 10.8332C11.25 11.5235 11.8097 12.0832 12.5 12.0832C13.1903 12.0832 13.75 11.5235 13.75 10.8332Z"
            fill="white"
          />
        </svg>