<svg width="25" height="24" viewBox="0 0 25 24" fill="none" xmlns="http://www.w3.org/2000/svg">
<g id="Frame">
<path id="Vector" d="M4.28307 2.82598L12.5 1L20.7169 2.82598C21.1745 2.92766 21.5 3.33347 21.5 3.80217V13.7889C21.5 15.795 20.4974 17.6684 18.8282 18.7812L12.5 23L6.1718 18.7812C4.50261 17.6684 3.5 15.795 3.5 13.7889V3.80217C3.5 3.33347 3.82553 2.92766 4.28307 2.82598ZM5.5 4.60434V13.7889C5.5 15.1263 6.1684 16.3752 7.2812 17.1171L12.5 20.5963L17.7188 17.1171C18.8316 16.3752 19.5 15.1263 19.5 13.7889V4.60434L12.5 3.04879L5.5 4.60434Z" fill="white"/>
</g>
</svg>
