<svg width="88" height="88" viewBox="0 0 88 88" fill="none" xmlns="http://www.w3.org/2000/svg">
<path d="M88 44C88 55.6695 83.3643 66.8611 75.1127 75.1127C66.8611 83.3643 55.6695 88 44 88C32.3305 88 21.1389 83.3643 12.8873 75.1127C4.6357 66.8611 1.76205e-06 55.6695 0 44L11.1716 44C11.1716 52.7066 14.6303 61.0567 20.7868 67.2132C26.9433 73.3697 35.2934 76.8284 44 76.8284C52.7066 76.8284 61.0567 73.3697 67.2132 67.2132C73.3697 61.0567 76.8284 52.7066 76.8284 44H88Z" fill="#EFD385"/>
<path d="M88 44C88 35.7207 85.664 27.6093 81.2606 20.5981C76.8571 13.5869 70.5649 7.96037 63.1069 4.36509C55.6489 0.769807 47.3279 -0.648319 39.1001 0.273683C30.8722 1.19569 23.0715 4.4204 16.5943 9.57725L23.6008 18.3777C28.422 14.5393 34.2285 12.139 40.3528 11.4527C46.4771 10.7664 52.6708 11.822 58.2221 14.4981C63.7733 17.1742 68.4569 21.3623 71.7346 26.581C75.0123 31.7997 76.751 37.8373 76.751 44H88Z" fill="#50C6DF"/>
<path d="M18.4484 8.17942C12.5745 12.3694 7.82108 17.9396 4.60693 24.3993C1.39279 30.8591 -0.183475 38.0101 0.0169851 45.2225L11.4718 44.9041C11.3236 39.5701 12.4893 34.2815 14.8664 29.5041C17.2435 24.7267 20.7589 20.6072 25.103 17.5085L18.4484 8.17942Z" fill="#A78BFF"/>
</svg>
